<?xml version="1.0" standalone="no"?><svg xmlns="http://www.w3.org/2000/svg" viewBox="0 0 1440 320"><path fill="#5000ca" fill-opacity="1" d="M0,256L26.7,261.3C53.3,267,107,277,160,245.3C213.3,213,267,139,320,122.7C373.3,107,427,149,480,154.7C533.3,160,587,128,640,122.7C693.3,117,747,139,800,154.7C853.3,171,907,181,960,181.3C1013.3,181,1067,171,1120,170.7C1173.3,171,1227,181,1280,186.7C1333.3,192,1387,192,1413,192L1440,192L1440,0L1413.3,0C1386.7,0,1333,0,1280,0C1226.7,0,1173,0,1120,0C1066.7,0,1013,0,960,0C906.7,0,853,0,800,0C746.7,0,693,0,640,0C586.7,0,533,0,480,0C426.7,0,373,0,320,0C266.7,0,213,0,160,0C106.7,0,53,0,27,0L0,0Z"></path></svg>